<svg xmlns="http://www.w3.org/2000/svg" width="33" height="32" viewBox="0 0 33 32" fill="none">
  <path d="M27.3734 3.55442C27.1707 3.32829 26.8817 3.19922 26.5787 3.19922H5.92165C5.61872 3.19922 5.32965 3.32829 5.12698 3.55442C4.92432 3.78055 4.82832 4.08242 4.86138 4.38322L7.21018 25.5278C7.25712 25.9576 7.56112 26.3171 7.97712 26.4355L15.9558 28.715C16.0518 28.7427 16.151 28.7566 16.2491 28.7566C16.3472 28.7566 16.4464 28.7427 16.5424 28.715L24.5211 26.4355C24.9371 26.3171 25.2401 25.9576 25.288 25.5278L27.6379 4.38322C27.6721 4.08242 27.576 3.78055 27.3734 3.55442ZM22.1339 13.9448L21.6582 21.7155L16.2843 23.4723L10.9104 21.7155L10.7067 17.9992H13.4267L13.495 19.6888L16.2843 20.635L19.0736 19.6888L19.2774 16.6488H13.2912L13.1558 13.9459H19.4139L19.6176 11.243H10.2299L10.0262 8.53895H22.4742L22.1339 13.9448Z" fill="url(#paint0_linear_1_147)"/>
  <defs>
    <linearGradient id="paint0_linear_1_147" x1="16.2498" y1="3.19922" x2="16.2498" y2="28.7566" gradientUnits="userSpaceOnUse">
      <stop stop-color="white"/>
      <stop offset="1" stop-color="white" stop-opacity="0.2"/>
    </linearGradient>
  </defs>
</svg>