<svg xmlns="http://www.w3.org/2000/svg" width="32" height="32" viewBox="0 0 32 32" fill="none">
  <path d="M27.1231 3.5554C26.9204 3.32926 26.6313 3.2002 26.3284 3.2002H5.67134C5.36841 3.2002 5.07934 3.32926 4.87668 3.5554C4.67401 3.78153 4.57801 4.0834 4.61108 4.3842L6.95988 25.5287C7.00681 25.9586 7.31081 26.3181 7.72681 26.4365L15.7055 28.7159C15.8015 28.7437 15.9007 28.7575 15.9988 28.7575C16.0969 28.7575 16.1961 28.7437 16.2921 28.7159L24.2708 26.4365C24.6868 26.3181 24.9897 25.9586 25.0377 25.5287L27.3876 4.3842C27.4217 4.0834 27.3257 3.78153 27.1231 3.5554ZM22.0041 11.1255H12.4788L12.7049 13.837H21.7748L21.0943 21.8477L16.0031 23.4669L15.9529 23.4509L10.9183 21.8455L10.6431 18.5815H13.1092L13.2169 19.8498L16.0297 20.4695L18.7935 19.8487L19.0868 16.4215H10.4575L9.78974 8.53353H22.226L22.0041 11.1255Z" fill="url(#paint0_linear_1_136)"/>
  <defs>
    <linearGradient id="paint0_linear_1_136" x1="15.9995" y1="3.2002" x2="15.9995" y2="28.7575" gradientUnits="userSpaceOnUse">
      <stop stop-color="white"/>
      <stop offset="1" stop-color="white" stop-opacity="0.2"/>
    </linearGradient>
  </defs>
</svg>