<svg xmlns="http://www.w3.org/2000/svg" width="33" height="32" viewBox="0 0 33 32" fill="none">
  <path d="M26.1001 4.2666H6.90009C5.72142 4.2666 4.76675 5.22127 4.76675 6.39993V25.5999C4.76675 26.7786 5.72142 27.7333 6.90009 27.7333H26.1001C27.2788 27.7333 28.2334 26.7786 28.2334 25.5999V6.39993C28.2334 5.22127 27.2788 4.2666 26.1001 4.2666ZM16.5001 21.7386C16.5001 23.6341 15.3374 24.6965 13.4068 24.6965C11.4996 24.6965 10.2846 23.5818 10.2846 21.7791H12.3508C12.3561 22.4479 12.755 22.8703 13.3716 22.8703C14.0052 22.8703 14.3454 22.4714 14.3454 21.7205V15.9978H16.5001V21.7386ZM22.3465 24.6965C20.2036 24.6965 18.8553 23.6874 18.819 22.0554H20.8734C20.9257 22.6719 21.5412 23.0645 22.434 23.0645C23.2382 23.0645 23.7908 22.6773 23.7908 22.1194C23.7908 21.6501 23.4206 21.3973 22.4521 21.2042L21.3374 20.9813C19.7876 20.6879 18.9897 19.8431 18.9897 18.5109C18.9897 16.8554 20.3166 15.7695 22.3582 15.7695C24.3422 15.7695 25.715 16.8437 25.7502 18.4106H23.7609C23.714 17.8122 23.1444 17.3951 22.386 17.3951C21.6297 17.3951 21.1316 17.7535 21.1316 18.3167C21.1316 18.7807 21.507 19.0506 22.3988 19.2266L23.4889 19.4378C25.1625 19.761 25.9134 20.5173 25.9134 21.8613C25.9145 23.6287 24.5652 24.6965 22.3465 24.6965Z" fill="url(#paint0_linear_1_158)"/>
  <defs>
    <linearGradient id="paint0_linear_1_158" x1="16.5001" y1="4.2666" x2="16.5001" y2="27.7333" gradientUnits="userSpaceOnUse">
      <stop stop-color="white"/>
      <stop offset="1" stop-color="white" stop-opacity="0.2"/>
    </linearGradient>
  </defs>
</svg>