<svg xmlns="http://www.w3.org/2000/svg" width="32" height="32" viewBox="0 0 32 32" fill="none">
  <path d="M10.4093 1.99957C9.61857 1.99957 8.88522 2.17658 8.23559 2.55057C6.20532 3.72275 5.43253 6.57926 5.84201 10.1357C2.558 11.5593 0.471008 13.6555 0.471008 15.9996C0.471008 18.3436 2.558 20.4398 5.84201 21.8634C5.43274 25.4197 6.20532 28.2764 8.23559 29.4486C8.88393 29.8226 9.61728 29.9996 10.4093 29.9996C12.095 29.9996 14.0433 29.1535 16.0002 27.702C17.9572 29.1535 19.9079 29.9996 21.5936 29.9996C22.3843 29.9996 23.1176 29.8226 23.7673 29.4486C25.7975 28.2764 26.5703 25.4199 26.1608 21.8634C29.4436 20.4398 31.5293 18.3431 31.5293 15.9996C31.5293 13.6555 29.4423 11.5593 26.1583 10.1357C26.5676 6.5794 25.795 3.72275 23.7647 2.55057C23.1164 2.17529 22.3831 1.99957 21.5911 1.99957C19.9053 1.99957 17.957 2.84561 16.0002 4.2971C14.0432 2.84561 12.0944 1.99957 10.4093 1.99957ZM10.4093 4.26424C11.4208 4.26424 12.7584 4.80208 14.2107 5.79845C13.3568 6.60427 12.5205 7.52057 11.716 8.54083C10.4111 8.72794 9.18073 9.0007 8.04097 9.34205C8.03485 9.26301 8.02035 9.18007 8.01569 9.10194C7.87722 6.79845 8.38311 5.08134 9.36792 4.51194C9.65909 4.34371 9.99904 4.26424 10.4093 4.26424ZM21.5911 4.26424C22 4.26424 22.3412 4.34371 22.6324 4.51194C23.6172 5.08005 24.1231 6.79845 23.9846 9.10194C23.9799 9.18007 23.9655 9.26301 23.9594 9.34205C22.8189 9.00048 21.5876 8.72795 20.2818 8.54083C19.4773 7.52071 18.6435 6.60417 17.7897 5.79845C19.2418 4.80224 20.5801 4.26424 21.5911 4.26424ZM16.0002 7.23662C16.351 7.55592 16.6993 7.8934 17.0516 8.2628C16.7025 8.25107 16.3552 8.23499 16.0002 8.23499C15.646 8.23499 15.2995 8.25113 14.9512 8.2628C15.3032 7.89378 15.6497 7.55561 16.0002 7.23662ZM16.0002 10.4997C17.0726 10.4997 18.089 10.5596 19.0534 10.664C19.6416 11.4634 20.2212 12.3086 20.7646 13.2496C21.2854 14.1516 21.7459 15.0749 22.1522 15.9996C21.7458 16.9248 21.2857 17.8495 20.7646 18.7521C20.2229 19.6904 19.6447 20.5301 19.0585 21.3276C18.06 21.4369 17.0357 21.4995 16.0002 21.4995C14.9278 21.4995 13.9113 21.4395 12.9469 21.3352C12.3588 20.5358 11.7791 19.6931 11.2358 18.7521C10.7147 17.8495 10.2546 16.9248 9.84815 15.9996C10.2543 15.0749 10.715 14.1516 11.2358 13.2496C11.7776 12.3113 12.3555 11.469 12.9419 10.6715C13.9403 10.5623 14.9646 10.4997 16.0002 10.4997ZM22.1421 11.1998C22.6555 11.3237 23.1491 11.4576 23.6131 11.6067C23.508 12.0817 23.3794 12.5658 23.234 13.055C23.0674 12.7425 22.906 12.429 22.7259 12.1173C22.5407 11.7966 22.3351 11.5085 22.1421 11.1998ZM9.85574 11.2023C9.66337 11.5101 9.45903 11.7976 9.2744 12.1173C9.09444 12.4291 8.93284 12.7425 8.76637 13.055C8.62059 12.5648 8.48994 12.0801 8.38471 11.6042C8.85723 11.4549 9.34959 11.3227 9.85574 11.2023ZM6.254 12.4358C6.52666 13.587 6.90491 14.7804 7.39139 15.997C6.90594 17.2108 6.52929 18.402 6.25653 19.5508C4.0029 18.4625 2.73568 17.1078 2.73568 15.9996C2.73568 14.8621 3.9675 13.5657 6.03158 12.5343C6.10203 12.4991 6.18201 12.4702 6.254 12.4358ZM25.7438 12.4484C27.9974 13.5366 29.2647 14.8913 29.2647 15.9996C29.2647 17.1371 28.0328 18.4334 25.9688 19.4648C25.8983 19.5001 25.8183 19.529 25.7463 19.5634C25.4735 18.4115 25.0984 17.2169 24.6115 15.9996C25.0963 14.7869 25.4713 13.5962 25.7438 12.4484ZM16.0002 13.4114C14.5702 13.4114 13.412 14.5696 13.412 15.9996C13.412 17.4295 14.5702 18.5878 16.0002 18.5878C17.4301 18.5878 18.5884 17.4295 18.5884 15.9996C18.5884 14.5696 17.4301 13.4114 16.0002 13.4114ZM8.76637 18.9441C8.93295 19.2567 9.09684 19.57 9.27693 19.8819C9.46195 20.2023 9.66545 20.4909 9.85826 20.7994C9.34483 20.6754 8.85125 20.5416 8.38724 20.3924C8.49244 19.9171 8.6208 19.4336 8.76637 18.9441ZM23.234 18.9467C23.3796 19.4364 23.5105 19.9195 23.6156 20.395C23.1431 20.5442 22.6507 20.6765 22.1446 20.7968C22.337 20.4891 22.5413 20.2015 22.7259 19.8819C22.9055 19.5707 23.0678 19.2586 23.234 18.9467ZM8.04097 22.6571C9.18144 22.9987 10.4127 23.2712 11.7185 23.4583C12.5233 24.4789 13.3564 25.3972 14.2107 26.2032C12.7585 27.1993 11.4207 27.7374 10.4093 27.7374C10.0003 27.7374 9.65909 27.6554 9.36792 27.4872C8.38311 26.9191 7.87722 25.2032 8.01569 22.8997C8.02043 22.8208 8.03474 22.737 8.04097 22.6571ZM23.9594 22.6571C23.9656 22.737 23.9799 22.8208 23.9846 22.8997C24.1231 25.2032 23.6172 26.9178 22.6324 27.4872C22.3412 27.6554 22.0013 27.7374 21.5911 27.7374C20.5796 27.7374 19.2418 27.1995 17.7897 26.2032C18.644 25.3971 19.4794 24.4791 20.2843 23.4583C21.5893 23.2712 22.8196 22.9984 23.9594 22.6571ZM14.9487 23.7363C15.2978 23.7481 15.6451 23.7642 16.0002 23.7642C16.3552 23.7642 16.7025 23.7481 17.0516 23.7363C16.6993 24.1057 16.351 24.4432 16.0002 24.7625C15.6494 24.4432 15.301 24.1057 14.9487 23.7363Z" fill="url(#paint0_linear_1_181)"/>
  <defs>
    <linearGradient id="paint0_linear_1_181" x1="16.0002" y1="1.99957" x2="16.0002" y2="29.9996" gradientUnits="userSpaceOnUse">
      <stop stop-color="white"/>
      <stop offset="1" stop-color="white" stop-opacity="0.2"/>
    </linearGradient>
  </defs>
</svg>