<svg xmlns="http://www.w3.org/2000/svg" width="33" height="32" viewBox="0 0 33 32" fill="none">
  <path d="M15.5833 2.66699C11.4713 2.66699 8.24999 7.44339 8.24999 13.5394C8.24999 16.2994 8.91943 18.7762 10.0234 20.6722C9.96076 20.8842 9.91665 21.1017 9.91665 21.3337C9.91665 22.6217 10.962 23.667 12.25 23.667C13.538 23.667 14.5833 22.6217 14.5833 21.3337C14.5833 20.0457 13.538 19.0003 12.25 19.0003C12.218 19.0003 12.1882 19.0094 12.1562 19.0107C11.3962 17.5467 10.9167 15.6261 10.9167 13.5394C10.9167 9.09139 13.054 5.33366 15.5833 5.33366C17.298 5.33366 18.8299 7.06289 19.6406 9.56022C20.6313 9.71889 21.6189 9.98978 22.6015 10.3285C21.6975 5.84712 18.938 2.66699 15.5833 2.66699ZM15.4167 11.3337C14.1287 11.3337 13.0833 12.379 13.0833 13.667C13.0833 14.955 14.1287 16.0003 15.4167 16.0003C16.3327 16.0003 17.1173 15.4688 17.5 14.7008C19.224 14.7782 21.1424 15.2781 22.9531 16.2581C25.5664 17.6741 27.5377 19.8473 28.0937 21.9326C28.3804 23.0033 28.2782 23.9442 27.7969 24.7269C26.8395 26.2842 24.552 26.9078 21.9427 26.5784C21.1707 27.3664 20.2893 28.0904 19.3333 28.7451C20.6667 29.1344 21.9878 29.3363 23.2318 29.3363C26.2104 29.3363 28.761 28.2493 30.0677 26.1253C30.937 24.712 31.1453 23.0251 30.6693 21.2451C29.9173 18.4358 27.5053 15.6931 24.2213 13.9144C21.8227 12.6144 19.3264 12.0092 17.0677 12.0186C16.645 11.5946 16.062 11.3337 15.4167 11.3337ZM5.71353 15.6566C3.76686 17.2686 2.37065 19.2358 1.83332 21.2451C1.35732 23.0251 1.56555 24.7121 2.43488 26.1227C3.73888 28.2467 6.29082 29.3337 9.27082 29.3337C11.5268 29.3337 14.0273 28.7156 16.4167 27.4196C18.6967 26.1849 20.5389 24.4828 21.7135 22.6201C22.7789 22.4041 23.5833 21.463 23.5833 20.3337C23.5833 19.0457 22.538 18.0003 21.25 18.0003C19.962 18.0003 18.9167 19.0457 18.9167 20.3337C18.9167 20.7683 19.0446 21.1718 19.2526 21.5212C18.3099 22.8745 16.8751 24.1412 15.1484 25.0758C10.9898 27.3278 6.20445 27.1669 4.70311 24.7243C4.22178 23.9416 4.12218 23.0033 4.40884 21.9326C4.69951 20.8459 5.38005 19.7351 6.33072 18.7191C6.04005 17.7524 5.83353 16.7272 5.71353 15.6566Z" fill="url(#paint0_linear_1_192)"/>
  <defs>
    <linearGradient id="paint0_linear_1_192" x1="16.2513" y1="2.66699" x2="16.2513" y2="29.3363" gradientUnits="userSpaceOnUse">
      <stop stop-color="white"/>
      <stop offset="1" stop-color="white" stop-opacity="0.2"/>
    </linearGradient>
  </defs>
</svg>