<svg xmlns="http://www.w3.org/2000/svg" width="33" height="32" viewBox="0 0 33 32" fill="none">
  <path d="M14.1069 22.4142C14.3062 21.8095 14.3276 21.1415 14.1342 20.4255C14.1079 20.4402 14.0816 20.4546 14.0555 20.4688C14.0412 20.4766 14.027 20.4844 14.0129 20.4922L14.0149 20.4962C14.0149 20.4962 12.6276 21.1515 11.6636 22.1709C10.7676 23.1189 10.5169 24.3075 11.0169 24.5975C11.4796 24.8662 12.5596 24.5475 13.3329 23.7042C13.5862 23.4275 13.7936 23.1282 13.9476 22.8082C13.9782 22.7442 14.0069 22.6789 14.0336 22.6135C14.0602 22.5475 14.0849 22.4815 14.1069 22.4142Z" fill="url(#paint0_linear_1_214)"/>
  <path fill-rule="evenodd" clip-rule="evenodd" d="M30.0833 15.9938C30.0833 8.64514 24.1267 2.68848 16.778 2.68848C9.42999 2.68848 3.47332 8.64514 3.47266 15.9938C3.47266 23.3425 9.42999 29.2991 16.778 29.2991C24.1267 29.2991 30.0833 23.3418 30.0833 15.9938ZM16.8956 6.56019C20.6035 5.24286 24.5216 6.01953 25.1242 8.38286C25.7169 10.7062 23.6995 13.4862 21.1169 14.4862C18.8102 15.3782 16.9029 15.2375 16.1196 14.9802C15.2296 14.6875 14.7069 14.1002 14.5796 13.7689L14.5776 13.7639C14.5274 13.6334 14.4453 13.4199 14.5796 13.3455C14.6629 13.2989 14.6962 13.3102 14.9202 13.5569C15.1329 13.7915 15.9882 14.4209 17.6129 14.2389C21.8762 13.7609 24.4442 10.4482 23.6329 8.66553C23.0649 7.41819 19.7782 6.85486 15.6729 8.90086C10.6616 11.3982 10.3896 13.4569 10.3469 14.2389C10.2658 15.7256 11.5655 16.7252 12.871 17.7293C13.4539 18.1777 14.038 18.6269 14.5009 19.1209C14.5356 19.1589 14.5702 19.1969 14.6036 19.2349C15.0576 19.0655 15.6856 18.9709 16.6842 18.9535C19.1096 18.9122 20.4789 20.5109 20.4229 21.9402C20.3782 23.0662 19.3449 23.5295 19.1529 23.5622C19.0129 23.5855 18.9376 23.5895 18.9176 23.4802C18.9042 23.4055 18.9536 23.3702 19.1176 23.2689C19.2809 23.1675 19.7709 22.8322 19.8582 22.2222C19.9462 21.6122 19.4882 20.1549 17.1542 19.8822C16.3276 19.7855 15.6762 19.8515 15.1182 19.9989C15.5229 20.8915 15.6002 22.6849 14.6689 24.0742C13.7036 25.5135 11.9082 26.3889 10.1582 25.9022C9.59355 25.7449 8.74022 24.5775 9.47622 22.9509C10.1736 21.4089 13.1536 19.9009 13.5609 19.7002V19.6929C13.2146 19.3945 12.7438 19.0702 12.2253 18.7131C10.6766 17.6462 8.70216 16.286 8.34755 14.4495C8.21355 13.7549 8.53888 12.0922 10.5816 10.1815C12.2996 8.57486 14.6889 7.34419 16.8956 6.56019Z" fill="url(#paint1_linear_1_214)"/>
  <defs>
    <linearGradient id="paint0_linear_1_214" x1="16.778" y1="2.68848" x2="16.778" y2="29.2991" gradientUnits="userSpaceOnUse">
      <stop stop-color="white"/>
      <stop offset="1" stop-color="white" stop-opacity="0.2"/>
    </linearGradient>
    <linearGradient id="paint1_linear_1_214" x1="16.778" y1="2.68848" x2="16.778" y2="29.2991" gradientUnits="userSpaceOnUse">
      <stop stop-color="white"/>
      <stop offset="1" stop-color="white" stop-opacity="0.2"/>
    </linearGradient>
  </defs>
</svg>