<svg xmlns="http://www.w3.org/2000/svg" width="33" height="32" viewBox="0 0 33 32" fill="none">
  <path d="M4.74951 6.66667V25.3333C4.74951 26.8067 5.94285 28 7.41618 28H26.0828C27.5562 28 28.7495 26.8067 28.7495 25.3333V6.66667C28.7495 5.19333 27.5562 4 26.0828 4H7.41618C5.94285 4 4.74951 5.19333 4.74951 6.66667ZM18.9708 16.6013H16.1468V25.3333H13.8708V16.6013H11.1055V14.6667H18.9708V16.6013ZM19.4135 24.8347V22.5C19.4135 22.5 20.6882 23.4613 22.2188 23.4613C23.7495 23.4613 23.6895 22.4613 23.6895 22.324C23.6895 20.872 19.3548 20.872 19.3548 17.656C19.3548 13.2813 25.6708 15.008 25.6708 15.008L25.5922 17.0867C25.5922 17.0867 24.5335 16.38 23.3362 16.38C22.1402 16.38 21.7082 16.9493 21.7082 17.5573C21.7082 19.1267 26.0828 18.9693 26.0828 22.128C26.0828 26.992 19.4135 24.8347 19.4135 24.8347Z" fill="url(#paint0_linear_1_169)"/>
  <defs>
    <linearGradient id="paint0_linear_1_169" x1="16.7495" y1="4" x2="16.7495" y2="28" gradientUnits="userSpaceOnUse">
      <stop stop-color="white"/>
      <stop offset="1" stop-color="white" stop-opacity="0.2"/>
    </linearGradient>
  </defs>
</svg>