<svg xmlns="http://www.w3.org/2000/svg" width="24" height="24" viewBox="0 0 24 24" fill="none">
  <path d="M10.9 2.10047C6.30001 2.60047 2.60001 6.30047 2.10001 10.8005C1.60001 15.5005 4.30001 19.7005 8.40001 21.3005C8.70001 21.4005 9.00001 21.2005 9.00001 20.8005V19.2005C9.00001 19.2005 8.60001 19.3005 8.10001 19.3005C6.70001 19.3005 6.10001 18.1005 6.00001 17.4005C5.90001 17.0005 5.70001 16.7005 5.40001 16.4005C5.10001 16.3005 5.00001 16.3005 5.00001 16.2005C5.00001 16.0005 5.30001 16.0005 5.40001 16.0005C6.00001 16.0005 6.50001 16.7005 6.70001 17.0005C7.20001 17.8005 7.80001 18.0005 8.10001 18.0005C8.50001 18.0005 8.80001 17.9005 9.00001 17.8005C9.10001 17.1005 9.40001 16.4005 10 16.0005C7.70001 15.5005 6.00001 14.2005 6.00001 12.0005C6.00001 10.9005 6.50001 9.80046 7.20001 9.00046C7.10001 8.80046 7.00001 8.30046 7.00001 7.60046C7.00001 7.20046 7.00001 6.60046 7.30001 6.00046C7.30001 6.00046 8.70001 6.00047 10.1 7.30047C10.6 7.10046 11.3 7.00046 12 7.00046C12.7 7.00046 13.4 7.10046 14 7.30047C15.3 6.00047 16.8 6.00046 16.8 6.00046C17 6.60046 17 7.20046 17 7.60046C17 8.40046 16.9 8.80046 16.8 9.00046C17.5 9.80046 18 10.8005 18 12.0005C18 14.2005 16.3 15.5005 14 16.0005C14.6 16.5005 15 17.4005 15 18.3005V20.9005C15 21.2005 15.3 21.5005 15.7 21.4005C19.4 19.9005 22 16.3005 22 12.1005C22 6.10047 16.9 1.40047 10.9 2.10047Z" fill="url(#paint0_linear_1_318)"/>
  <defs>
    <linearGradient id="paint0_linear_1_318" x1="12.0203" y1="2.03125" x2="12.0203" y2="21.4201" gradientUnits="userSpaceOnUse">
      <stop stop-color="white"/>
      <stop offset="1" stop-color="white" stop-opacity="0.2"/>
    </linearGradient>
  </defs>
</svg>