<svg xmlns="http://www.w3.org/2000/svg" width="24" height="24" viewBox="0 0 24 24" fill="none">
  <path d="M19.1429 2.62598H4.85714C3.625 2.62598 2.625 3.62598 2.625 4.85812V19.1438C2.625 20.376 3.625 21.376 4.85714 21.376H19.1429C20.375 21.376 21.375 20.376 21.375 19.1438V4.85812C21.375 3.62598 20.375 2.62598 19.1429 2.62598ZM8.42857 9.76883V18.251H5.75V9.76883H8.42857ZM5.75 7.30008C5.75 6.67508 6.28571 6.19741 7.08929 6.19741C7.89286 6.19741 8.39732 6.67508 8.42857 7.30008C8.42857 7.92508 7.92857 8.42955 7.08929 8.42955C6.28571 8.42955 5.75 7.92508 5.75 7.30008ZM18.25 18.251H15.5714C15.5714 18.251 15.5714 14.117 15.5714 13.7867C15.5714 12.8938 15.125 12.001 14.0089 11.9831H13.9732C12.8929 11.9831 12.4464 12.9028 12.4464 13.7867C12.4464 14.1929 12.4464 18.251 12.4464 18.251H9.76786V9.76883H12.4464V10.9117C12.4464 10.9117 13.308 9.76883 15.0402 9.76883C16.8125 9.76883 18.25 10.9876 18.25 13.4563V18.251Z" fill="url(#paint0_linear_1_325)"/>
  <defs>
    <linearGradient id="paint0_linear_1_325" x1="12" y1="2.62598" x2="12" y2="21.376" gradientUnits="userSpaceOnUse">
      <stop stop-color="white"/>
      <stop offset="1" stop-color="white" stop-opacity="0.2"/>
    </linearGradient>
  </defs>
</svg>